<svg width="56" height="56" viewBox="0 0 56 56" fill="none" xmlns="http://www.w3.org/2000/svg">
<mask id="mask0_57204_60710" style="mask-type:alpha" maskUnits="userSpaceOnUse" x="0" y="0" width="56" height="56">
<rect width="56" height="56" fill="#D9D9D9"/>
</mask>
<g mask="url(#mask0_57204_60710)">
<path d="M27.9987 51.3333C21.7376 46.0056 17.0612 41.0569 13.9695 36.4875C10.8779 31.9181 9.33203 27.6889 9.33203 23.8C9.33203 17.9667 11.2084 13.3194 14.9612 9.85833C18.714 6.39722 23.0598 4.66667 27.9987 4.66667C28.6598 4.66667 29.2918 4.69583 29.8945 4.75417C30.4973 4.8125 31.1098 4.9 31.732 5.01667V8.63333C31.1487 8.47778 30.5459 8.36111 29.9237 8.28333C29.3015 8.20555 28.6598 8.16667 27.9987 8.16667C23.7435 8.16667 20.1519 9.62694 17.2239 12.5475C14.296 15.4684 12.832 19.2193 12.832 23.8C12.832 26.7167 14.0959 30.0903 16.6237 33.9208C19.1515 37.7514 22.9431 42.0194 27.9987 46.725C33.1709 42.0194 36.9918 37.7514 39.4612 33.9208C41.9306 30.0903 43.1654 26.7167 43.1654 23.8C43.1654 23.4889 43.1556 23.1778 43.1362 22.8667C43.1168 22.5556 43.0876 22.2444 43.0487 21.9333H46.607C46.6459 22.2444 46.6654 22.5556 46.6654 22.8667V23.8C46.6654 27.6889 45.1195 31.9181 42.0279 36.4875C38.9362 41.0569 34.2598 46.0056 27.9987 51.3333ZM28.0039 27.4167C29.1282 27.4167 30.089 27.0163 30.8862 26.2156C31.6834 25.4149 32.082 24.4524 32.082 23.3281C32.082 22.2038 31.6817 21.2431 30.8809 20.4458C30.0802 19.6486 29.1177 19.25 27.9934 19.25C26.8692 19.25 25.9084 19.6504 25.1112 20.4511C24.314 21.2518 23.9154 22.2143 23.9154 23.3386C23.9154 24.4629 24.3157 25.4236 25.1164 26.2208C25.9172 27.0181 26.8797 27.4167 28.0039 27.4167ZM42.6987 18.4333H46.1987V10.9667H53.6654V7.46667H46.1987V0H42.6987V7.46667H35.232V10.9667H42.6987V18.4333Z" fill="#00EBB0"/>
</g>
</svg>
