<svg width="24" height="24" viewBox="0 0 24 24" fill="none" xmlns="http://www.w3.org/2000/svg">
<path d="M19.622 5.55208V17.7938H3.55208V5.55208H19.622ZM19.722 3.9H3.45208C2.60481 3.9 1.9 4.60481 1.9 5.45208V17.8938C1.9 18.741 2.60481 19.4459 3.45208 19.4459H19.722C20.5693 19.4459 21.2741 18.741 21.2741 17.8938V5.4541C21.3083 4.60224 20.5991 3.9 19.722 3.9Z" fill="white" stroke="white" stroke-width="0.2"/>
<path d="M17.15 7.39929V7.29929H17.05H6.19238H6.09238V7.39929V8.85137V8.95137H6.19238H17.05H17.15V8.85137V7.39929Z" fill="white" stroke="white" stroke-width="0.2"/>
<path d="M5.65347 11.8402L5.58276 11.7695L5.51205 11.8402L4.952 12.4002L4.88129 12.4709L4.952 12.5417L6.58549 14.1751L6.6562 14.2459L6.72691 14.1751L7.28696 13.6151L7.35767 13.5444L7.28696 13.4737L5.65347 11.8402Z" fill="white" stroke="white" stroke-width="0.2"/>
<path d="M6.72691 11.8401L6.6562 11.7694L6.58549 11.8401L4.952 13.4736L4.88129 13.5443L4.952 13.615L5.51205 14.1751L5.58276 14.2458L5.65347 14.1751L7.28696 12.5416L7.35767 12.4709L7.28696 12.4002L6.72691 11.8401Z" fill="white" stroke="white" stroke-width="0.2"/>
<path d="M8.43032 11.8505L8.35961 11.7798L8.2889 11.8505L7.72885 12.4106L7.65814 12.4813L7.72885 12.552L9.36234 14.1855L9.43305 14.2562L9.50376 14.1855L10.0638 13.6254L10.1345 13.5547L10.0638 13.484L8.43032 11.8505Z" fill="white" stroke="white" stroke-width="0.2"/>
<path d="M9.50376 11.8504L9.43305 11.7797L9.36234 11.8504L7.72885 13.4839L7.65814 13.5546L7.72885 13.6253L8.2889 14.1854L8.35961 14.2561L8.43032 14.1854L10.0638 12.5519L10.1345 12.4812L10.0638 12.4105L9.50376 11.8504Z" fill="white" stroke="white" stroke-width="0.2"/>
<path d="M11.2296 11.837L11.1589 11.7663L11.0882 11.837L10.5282 12.3971L10.4575 12.4678L10.5282 12.5385L12.1617 14.172L12.2324 14.2427L12.3031 14.172L12.8631 13.6119L12.9338 13.5412L12.8631 13.4705L11.2296 11.837Z" fill="white" stroke="white" stroke-width="0.2"/>
<path d="M12.3031 11.8369L12.2324 11.7662L12.1617 11.8369L10.5282 13.4704L10.4575 13.5411L10.5282 13.6118L11.0882 14.1719L11.1589 14.2426L11.2296 14.1719L12.8631 12.5384L12.9338 12.4677L12.8631 12.397L12.3031 11.8369Z" fill="white" stroke="white" stroke-width="0.2"/>
<path d="M14.0053 11.8473L13.9346 11.7766L13.8639 11.8473L13.3038 12.4074L13.2331 12.4781L13.3038 12.5488L14.9373 14.1823L15.008 14.253L15.0787 14.1823L15.6388 13.6222L15.7095 13.5515L15.6388 13.4808L14.0053 11.8473Z" fill="white" stroke="white" stroke-width="0.2"/>
<path d="M15.0787 11.8473L15.008 11.7765L14.9373 11.8473L13.3038 13.4807L13.2331 13.5515L13.3038 13.6222L13.8639 14.1822L13.9346 14.2529L14.0053 14.1822L15.6388 12.5487L15.7095 12.478L15.6388 12.4073L15.0787 11.8473Z" fill="white" stroke="white" stroke-width="0.2"/>
<path d="M16.8058 11.8342L16.7351 11.7635L16.6644 11.8342L16.1043 12.3943L16.0336 12.465L16.1043 12.5357L17.7378 14.1692L17.8085 14.2399L17.8793 14.1692L18.4393 13.6091L18.51 13.5384L18.4393 13.4677L16.8058 11.8342Z" fill="white" stroke="white" stroke-width="0.2"/>
<path d="M17.8793 11.8341L17.8085 11.7634L17.7378 11.8341L16.1043 13.4676L16.0336 13.5383L16.1043 13.609L16.6644 14.1691L16.7351 14.2398L16.8058 14.1691L18.4393 12.5356L18.51 12.4649L18.4393 12.3942L17.8793 11.8341Z" fill="white" stroke="white" stroke-width="0.2"/>
<path d="M18.1723 14.9567V14.8567H18.0723H5.30054H5.20054V14.9567V15.7487V15.8487H5.30054H18.0723H18.1723V15.7487V14.9567Z" fill="white" stroke="white" stroke-width="0.2"/>
</svg>
