<svg width="80" height="80" viewBox="0 0 80 80" fill="none" xmlns="http://www.w3.org/2000/svg">
<path d="M35.0846 55.1667L58.668 31.5833L54.8346 27.8333L35.0846 47.5833L25.0846 37.5833L21.3346 41.3333L35.0846 55.1667ZM40.0013 73.3333C35.4457 73.3333 31.1402 72.4583 27.0846 70.7083C23.0291 68.9583 19.4874 66.5694 16.4596 63.5417C13.4319 60.5139 11.043 56.9722 9.29297 52.9167C7.54297 48.8611 6.66797 44.5556 6.66797 40C6.66797 35.3889 7.54297 31.0556 9.29297 27C11.043 22.9444 13.4319 19.4167 16.4596 16.4167C19.4874 13.4167 23.0291 11.0417 27.0846 9.29167C31.1402 7.54167 35.4457 6.66667 40.0013 6.66667C44.6124 6.66667 48.9457 7.54167 53.0013 9.29167C57.0569 11.0417 60.5846 13.4167 63.5846 16.4167C66.5846 19.4167 68.9596 22.9444 70.7096 27C72.4596 31.0556 73.3346 35.3889 73.3346 40C73.3346 44.5556 72.4596 48.8611 70.7096 52.9167C68.9596 56.9722 66.5846 60.5139 63.5846 63.5417C60.5846 66.5694 57.0569 68.9583 53.0013 70.7083C48.9457 72.4583 44.6124 73.3333 40.0013 73.3333ZM40.0013 68.3333C47.8902 68.3333 54.5846 65.5694 60.0846 60.0417C65.5846 54.5139 68.3346 47.8333 68.3346 40C68.3346 32.1111 65.5846 25.4167 60.0846 19.9167C54.5846 14.4167 47.8902 11.6667 40.0013 11.6667C32.168 11.6667 25.4874 14.4167 19.9596 19.9167C14.4319 25.4167 11.668 32.1111 11.668 40C11.668 47.8333 14.4319 54.5139 19.9596 60.0417C25.4874 65.5694 32.168 68.3333 40.0013 68.3333Z" fill="#00EBB0"/>
</svg>
