<svg width="32" height="32" viewBox="0 0 32 32" fill="none" xmlns="http://www.w3.org/2000/svg">
<rect width="32" height="32" rx="16" fill="#3BFFC2"/>
<g clip-path="url(#clip0_55122_2044)">
<mask id="mask0_55122_2044" style="mask-type:luminance" maskUnits="userSpaceOnUse" x="4" y="4" width="24" height="24">
<path d="M27.364 4.07159H4.63672V27.9284H27.364V4.07159Z" fill="white"/>
</mask>
<g mask="url(#mask0_55122_2044)">
<path d="M15.1295 18.4057C14.759 17.8671 14.4477 18.8421 14.559 18.9625C14.6704 19.083 14.8068 18.6966 14.9772 18.7489C15.2045 18.8239 15.3204 19.1739 15.8022 19.2034C15.5 19.0398 15.2954 18.6421 15.1204 18.4011" fill="#242322"/>
</g>
<mask id="mask1_55122_2044" style="mask-type:luminance" maskUnits="userSpaceOnUse" x="6" y="4" width="20" height="24">
<path d="M26 4.99658H6V27.0034H26V4.99658Z" fill="white"/>
</mask>
<g mask="url(#mask1_55122_2044)">
<path d="M16.8097 18.4057C16.6461 18.6466 16.4393 19.0443 16.1279 19.2079C16.6075 19.1738 16.7143 18.8238 16.9529 18.7534C17.1211 18.7011 17.2507 19.0966 17.3711 18.967C17.4916 18.8375 17.1688 17.8716 16.7984 18.4102" fill="#242322"/>
<path d="M25.5798 14.0489C25.6406 14.0201 25.7069 14.0052 25.7741 14.0052C25.8413 14.0052 25.9077 14.0201 25.9684 14.0489C25.4253 12.7534 23.4684 14.0125 23.4684 14.0125C23.4684 13.7057 23.5025 13.0579 23.5025 13.0579C23.4389 12.9443 23.3616 12.8079 23.2753 12.6602C23.2753 12.5489 23.2753 12.4329 23.2753 12.3216C23.2753 12.2829 23.2753 12.2443 23.2753 12.2034L23.2548 11.9057C23.2548 11.8648 23.2548 11.8239 23.2548 11.7829C23.2548 11.742 23.2548 11.7193 23.2548 11.6898C23.2024 11.1465 23.0818 10.612 22.8957 10.0989L23.3344 10.4511C23.2651 9.88035 22.9756 9.35921 22.5275 8.99886L23.0753 9.06476C22.9327 8.88024 22.7504 8.73025 22.5418 8.62597C22.3333 8.52169 22.1039 8.46581 21.8707 8.46249C21.8707 8.46249 21.9889 7.40795 21.473 6.65567L21.3548 7.46022C21.3548 7.46022 20.7366 5.75795 17.9162 5.22385C15.6957 4.79204 14.3344 5.90567 13.3162 6.13295C12.298 6.36022 11.6389 5.33067 11.498 4.99658C11.2625 5.55565 11.159 6.16149 11.1957 6.76704C10.8661 6.31378 10.6438 5.79153 10.5457 5.23976C10.3933 5.49762 10.277 5.77522 10.2003 6.06476V6.08976C10.1837 6.1443 10.17 6.19968 10.1594 6.25567C10.1594 6.2784 10.148 6.3034 10.1434 6.32613L10.1162 6.46476L10.1025 6.55567C10.1025 6.60113 10.0889 6.64658 10.0844 6.69431C10.0798 6.74204 10.0844 6.76022 10.073 6.79658C10.0616 6.83295 10.073 6.89431 10.0616 6.94431C10.0503 6.99431 10.0616 7.01249 10.0616 7.04885C10.0616 7.08522 10.0616 7.16249 10.0616 7.22158V7.31476C10.0616 7.40567 10.0616 7.49885 10.0775 7.59431C9.83558 7.50716 9.60979 7.38044 9.40935 7.21931C9.48114 7.6517 9.60082 8.07475 9.76617 8.48067C9.52728 8.9547 9.32296 9.44537 9.15481 9.94886C8.84806 10.8979 8.68638 11.8879 8.67526 12.8852L8.4889 13.1125C8.4889 13.2716 8.51163 13.7557 8.52072 14.0102C8.52072 14.0102 6.56617 12.7511 6.02072 14.0466C6.08147 14.0179 6.14783 14.003 6.21504 14.003C6.28224 14.003 6.3486 14.0179 6.40935 14.0466C6.16006 14.4528 6.01509 14.9144 5.98733 15.3902C5.95957 15.8661 6.0499 16.3414 6.25026 16.7739C6.27376 16.659 6.30722 16.5465 6.35026 16.4375C6.35026 16.4375 6.7389 18.9375 9.07754 19.8125C9.07754 19.8125 9.44344 21.0034 9.25481 21.5102C9.45154 21.4504 9.63063 21.3433 9.77643 21.1983C9.92222 21.0533 10.0303 20.8748 10.0912 20.6784C10.023 22.7239 11.1821 22.9102 11.0003 24.142C11.0003 24.142 11.6003 23.4102 11.4548 22.5511C11.4548 22.5511 12.3389 24.4011 14.0594 25.1079C13.9444 24.7455 13.8578 24.3747 13.8003 23.9989C14.4457 25.067 15.9957 25.8489 15.5662 27.0034C17.6116 25.5807 16.4389 25.0966 18.1821 23.9989C18.1246 24.3747 18.038 24.7455 17.923 25.1079C19.6525 24.4011 20.5457 22.5511 20.5457 22.5511C20.4048 23.4102 21.0003 24.142 21.0003 24.142C20.8184 22.9102 21.9775 22.7239 21.9094 20.6784C21.9693 20.8761 22.0769 21.056 22.2228 21.2022C22.3686 21.3485 22.5482 21.4566 22.7457 21.517C22.5571 21.0102 22.923 19.8193 22.923 19.8193C25.2571 18.9466 25.6503 16.4443 25.6503 16.4443C25.6933 16.5533 25.7268 16.6659 25.7503 16.7807C25.9506 16.3482 26.041 15.8729 26.0132 15.3971C25.9854 14.9212 25.8405 14.4596 25.5912 14.0534M8.95481 15.742C8.90966 16.0429 8.9005 16.3481 8.92754 16.6511C8.04572 15.6579 7.81844 16.8352 7.81844 16.8352C8.07754 16.3989 8.95481 17.2261 8.95481 17.2261C8.98101 17.8438 9.08954 18.4553 9.27754 19.0443C5.56163 17.7011 6.90935 11.7648 8.95481 15.742ZM21.0844 9.3784C21.1095 9.50367 21.1095 9.63268 21.0844 9.75795L21.0594 9.90795L21.0003 9.76931C20.8663 9.30707 20.5845 8.9015 20.198 8.61476L20.0707 8.5284L20.2253 8.53976C20.4381 8.5724 20.6352 8.67155 20.7883 8.823C20.9414 8.97445 21.0426 9.17045 21.0775 9.38295M15.2003 6.52613C16.6934 5.95113 18.473 6.09658 19.7457 6.89885L19.7753 6.91704C19.7838 6.9218 19.7915 6.92795 19.798 6.93522C19.9257 7.02625 20.0472 7.12571 20.1616 7.23295L20.3889 7.46022L20.1071 7.29885C19.3533 6.87124 18.5144 6.61516 17.6503 6.54885C16.84 6.51465 16.0285 6.53363 15.2207 6.60567L14.8207 6.67158L15.2003 6.52613ZM19.423 11.6216H19.3957H19.4184M13.923 7.57385C14.3412 7.80113 14.8321 7.75113 15.3184 7.69658L15.4707 7.6784C16.1339 7.55428 16.8144 7.55428 17.4775 7.6784L17.8184 7.76022H17.7139L17.8344 7.80795L18.2025 7.95795L17.8321 7.89431C17.12 7.78957 16.3964 7.78957 15.6844 7.89431H15.6616C15.4188 7.92567 15.1746 7.94388 14.9298 7.94885C14.5512 7.97492 14.1764 7.85996 13.8775 7.62613L13.5889 7.37385L13.923 7.57385ZM11.7889 6.61476C12.2384 7.44636 12.8767 8.16095 13.6525 8.70113L13.6889 8.7284L13.8866 8.88295L14.1139 9.07158L13.8389 8.95113C13.0003 8.58522 11.9366 7.76022 11.7094 6.64204L11.6525 6.36022L11.7889 6.61476ZM19.4662 21.5193C19.2389 22.2989 18.5866 22.8466 17.7775 23.1625C16.6214 23.636 15.3265 23.6417 14.1662 23.1784C13.3298 22.8579 12.6662 22.2966 12.4412 21.4875C12.4298 21.4443 12.423 21.4011 12.4116 21.3557C13.5239 21.79 14.711 22.0001 15.9048 21.9739C17.2957 21.9739 18.6071 21.7261 19.5207 21.292C19.5074 21.3689 19.4892 21.4448 19.4662 21.5193ZM19.6548 19.2079C19.6548 19.2079 20.1253 20.0557 19.9616 20.8807C19.9616 20.8807 19.8321 20.3966 19.5071 20.2443C19.5384 20.4046 19.5559 20.5674 19.5594 20.7307C18.7184 21.2011 17.3684 21.4807 15.9094 21.4807C14.5207 21.4807 13.2116 21.2216 12.3662 20.7989C12.371 20.6161 12.393 20.4343 12.4321 20.2557C12.1025 20.4079 11.9775 20.892 11.9775 20.892C11.8116 20.067 12.2844 19.2193 12.2844 19.2193C9.63663 19.1829 9.92981 16.1193 9.92981 16.1193C9.92981 16.1193 10.4957 16.0852 10.5912 16.2739C10.6866 16.4625 10.3434 18.7739 13.3821 18.5466C13.3821 18.5466 15.173 18.4534 15.598 16.8739C15.7152 16.809 15.847 16.775 15.9809 16.775C16.1149 16.775 16.2467 16.809 16.3639 16.8739C16.7866 18.4534 18.5775 18.5466 18.5775 18.5466C21.6184 18.7943 21.2775 16.4739 21.3707 16.2739C21.4639 16.0739 22.0298 16.1193 22.0298 16.1193C22.2389 17.642 21.2912 19.192 19.6548 19.2079ZM15.0184 15.4511C15.0851 15.5292 15.1388 15.6174 15.1775 15.7125H11.0548C11.0598 15.6196 11.0888 15.5295 11.1389 15.4511H15.0184ZM11.5957 15.0989C12.0546 14.9308 12.5389 14.8424 13.0275 14.8375H13.4821H13.6321C13.9572 14.8626 14.2747 14.9482 14.5684 15.0898L11.5957 15.0989ZM15.2525 16.0443C15.2557 16.1317 15.2511 16.2191 15.2389 16.3057H11.0139C11.0139 16.2125 11.0139 16.1239 11.0139 16.0443H15.2525ZM11.4366 17.5125L11.4071 17.4966C11.3386 17.4292 11.2797 17.3527 11.2321 17.2693H14.8503C14.7863 17.3564 14.7148 17.4378 14.6366 17.5125H11.4366ZM14.2094 17.8557C14.0444 17.9576 13.8652 18.0342 13.6775 18.0829L13.6207 18.0989H13.6048C13.433 18.1286 13.2587 18.1423 13.0844 18.1398C12.8485 18.1429 12.6132 18.1154 12.3844 18.0579C12.2126 18.0142 12.0469 17.9493 11.8912 17.8648L14.2094 17.8557ZM11.0957 16.9102C11.071 16.8246 11.0528 16.7372 11.0412 16.6489H15.1525C15.1228 16.7379 15.0879 16.8252 15.048 16.9102H11.0957ZM20.8253 15.4511C20.8754 15.5295 20.9044 15.6196 20.9094 15.7125H16.7866C16.8262 15.6179 16.8798 15.5297 16.9457 15.4511H20.8253ZM17.3889 15.0989C17.6818 14.9573 17.9986 14.8718 18.323 14.8466H18.473H18.9275C19.4162 14.8515 19.9004 14.9399 20.3594 15.1079L17.3889 15.0989ZM20.9457 16.0443C20.9457 16.1239 20.9457 16.2125 20.9457 16.3057H16.7275C16.7142 16.2192 16.7096 16.1317 16.7139 16.0443H20.9457ZM17.3298 17.5125C17.2467 17.432 17.1707 17.3446 17.1025 17.2511H20.7344C20.6859 17.3346 20.6263 17.4111 20.5571 17.4784L20.5275 17.5034L17.3298 17.5125ZM20.073 17.8557C19.9146 17.942 19.7458 18.0077 19.5707 18.0511C19.3477 18.1063 19.1186 18.133 18.8889 18.1307C18.713 18.1333 18.5373 18.1196 18.3639 18.0898C18.3366 18.0862 18.3099 18.0794 18.2844 18.0693C18.1037 18.0246 17.9306 17.9533 17.7707 17.8579L20.073 17.8557ZM16.9094 16.9102C16.8677 16.8257 16.832 16.7383 16.8025 16.6489H20.923C20.911 16.737 20.8936 16.8243 20.8707 16.9102H16.9094ZM16.8162 14.7466C16.3821 15.0057 16.2616 15.6557 15.9389 15.6875C15.673 15.6648 15.3571 15.0057 15.0184 14.792C13.7048 13.9329 10.6662 14.7352 9.85254 14.8329C9.9389 12.9739 11.4434 11.9989 12.7344 11.892C13.3707 12.2693 14.548 12.4966 15.9025 12.4966C17.2571 12.4966 18.4753 12.242 19.0844 11.867C19.8207 11.9261 22.023 12.3216 22.1412 14.8216C21.498 14.7443 17.9139 14.0807 16.8162 14.7352M22.223 10.2239L22.1366 10.1852C21.5866 10.0034 21.4957 9.95795 21.4957 9.88749V9.84885H21.5366C21.7626 9.84784 21.9831 9.91867 22.1662 10.0511H22.1821L22.1957 10.0648C22.2253 10.092 22.2525 10.117 22.2753 10.142L22.3844 10.2648L22.223 10.2239ZM22.8866 19.0489C23.0759 18.4601 23.1852 17.8486 23.2116 17.2307C23.2116 17.2307 24.0775 16.4034 24.348 16.8398C24.348 16.8398 24.1207 15.6625 23.2412 16.6511C23.2705 16.3482 23.2613 16.0427 23.2139 15.742C25.2594 11.7648 26.6048 17.7011 22.898 19.0489" fill="#242322"/>
</g>
</g>
<defs>
<clipPath id="clip0_55122_2044">
<rect width="20" height="22.0068" fill="white" transform="translate(6 4.99658)"/>
</clipPath>
</defs>
</svg>
