<svg width="80" height="80" viewBox="0 0 80 80" fill="none" xmlns="http://www.w3.org/2000/svg">
<path d="M27.5013 56L40.0013 43.5L52.5013 56L56.0013 52.5L43.5013 40L56.0013 27.5L52.5013 24L40.0013 36.5L27.5013 24L24.0013 27.5L36.5013 40L24.0013 52.5L27.5013 56ZM40.0013 73.3333C35.4457 73.3333 31.1402 72.4583 27.0846 70.7083C23.0291 68.9583 19.4874 66.5694 16.4596 63.5416C13.4319 60.5138 11.043 56.9722 9.29297 52.9166C7.54297 48.8611 6.66797 44.5555 6.66797 40C6.66797 35.3888 7.54297 31.0555 9.29297 27C11.043 22.9444 13.4319 19.4166 16.4596 16.4166C19.4874 13.4166 23.0291 11.0416 27.0846 9.29163C31.1402 7.54163 35.4457 6.66663 40.0013 6.66663C44.6124 6.66663 48.9457 7.54163 53.0013 9.29163C57.0569 11.0416 60.5846 13.4166 63.5846 16.4166C66.5846 19.4166 68.9596 22.9444 70.7096 27C72.4596 31.0555 73.3346 35.3888 73.3346 40C73.3346 44.5555 72.4596 48.8611 70.7096 52.9166C68.9596 56.9722 66.5846 60.5138 63.5846 63.5416C60.5846 66.5694 57.0569 68.9583 53.0013 70.7083C48.9457 72.4583 44.6124 73.3333 40.0013 73.3333ZM40.0013 68.3333C47.8902 68.3333 54.5846 65.5694 60.0846 60.0416C65.5846 54.5138 68.3346 47.8333 68.3346 40C68.3346 32.1111 65.5846 25.4166 60.0846 19.9166C54.5846 14.4166 47.8902 11.6666 40.0013 11.6666C32.168 11.6666 25.4874 14.4166 19.9596 19.9166C14.4319 25.4166 11.668 32.1111 11.668 40C11.668 47.8333 14.4319 54.5138 19.9596 60.0416C25.4874 65.5694 32.168 68.3333 40.0013 68.3333Z" fill="#E894A8"/>
</svg>
