<svg width="44" height="44" viewBox="0 0 44 44" fill="none" xmlns="http://www.w3.org/2000/svg">
<path d="M1.83301 38.5V34.8333H42.1663V38.5H1.83301ZM7.33301 33C6.32467 33 5.46148 32.641 4.74342 31.9229C4.02537 31.2049 3.66634 30.3417 3.66634 29.3333V9.16667C3.66634 8.15833 4.02537 7.29514 4.74342 6.57708C5.46148 5.85903 6.32467 5.5 7.33301 5.5H36.6663C37.6747 5.5 38.5379 5.85903 39.2559 6.57708C39.974 7.29514 40.333 8.15833 40.333 9.16667V29.3333C40.333 30.3417 39.974 31.2049 39.2559 31.9229C38.5379 32.641 37.6747 33 36.6663 33H7.33301ZM7.33301 29.3333H36.6663V9.16667H7.33301V29.3333Z" fill="#292926"/>
</svg>
