<svg width="24" height="24" viewBox="0 0 24 24" fill="none" xmlns="http://www.w3.org/2000/svg">
<path d="M9 21H5C4.45 21 3.97917 20.8042 3.5875 20.4125C3.19583 20.0208 3 19.55 3 19V5C3 4.45 3.19583 3.97917 3.5875 3.5875C3.97917 3.19583 4.45 3 5 3H9V5H5V19H9V21ZM11 23V1H13V23H11ZM15 21V19H17V21H15ZM15 5V3H17V5H15ZM19 21V19H21C21 19.55 20.8042 20.0208 20.4125 20.4125C20.0208 20.8042 19.55 21 19 21ZM19 17V15H21V17H19ZM19 13V11H21V13H19ZM19 9V7H21V9H19ZM19 5V3C19.55 3 20.0208 3.19583 20.4125 3.5875C20.8042 3.97917 21 4.45 21 5H19Z" fill="black"/>
</svg>
