<svg width="24" height="24" viewBox="0 0 24 24" fill="none" xmlns="http://www.w3.org/2000/svg">
<path d="M20.3842 7.74512V10.2644H3.61454V7.74512H20.3842ZM20.4842 6.03058H3.51454C2.6332 6.03058 1.9 6.76378 1.9 7.64512V10.3644C1.9 11.2457 2.6332 11.9789 3.51454 11.9789H20.4842C21.3656 11.9789 22.0988 11.2457 22.0988 10.3644V7.64714C22.1344 6.76122 21.3968 6.03058 20.4842 6.03058Z" fill="white" stroke="white" stroke-width="0.2"/>
<mask id="path-2-outside-1_55225_32059" maskUnits="userSpaceOnUse" x="3.03125" y="9.36429" width="18" height="13" fill="black">
<rect fill="white" x="3.03125" y="9.36429" width="18" height="13"/>
<path d="M18.4882 11.8788V20.5186H5.51136V11.9132H18.4882M18.4882 10.3643H5.54579C4.71968 10.3643 4.03125 11.0527 4.03125 11.8788V20.4841C4.03125 21.3103 4.71968 21.9987 5.54579 21.9987H18.5226C19.3487 21.9987 20.0371 21.3103 20.0371 20.4841V11.8788C20.0371 11.0527 19.3487 10.3643 18.4882 10.3643Z"/>
</mask>
<path d="M18.4882 11.8788V20.5186H5.51136V11.9132H18.4882M18.4882 10.3643H5.54579C4.71968 10.3643 4.03125 11.0527 4.03125 11.8788V20.4841C4.03125 21.3103 4.71968 21.9987 5.54579 21.9987H18.5226C19.3487 21.9987 20.0371 21.3103 20.0371 20.4841V11.8788C20.0371 11.0527 19.3487 10.3643 18.4882 10.3643Z" fill="white"/>
<path d="M18.4882 20.5186V20.7186H18.6882V20.5186H18.4882ZM5.51136 20.5186H5.31136V20.7186H5.51136V20.5186ZM5.51136 11.9132V11.7132H5.31136V11.9132H5.51136ZM18.2882 11.8788V20.5186H18.6882V11.8788H18.2882ZM18.4882 20.3186H5.51136V20.7186H18.4882V20.3186ZM5.71136 20.5186V11.9132H5.31136V20.5186H5.71136ZM5.51136 12.1132H18.4882V11.7132H5.51136V12.1132ZM18.4882 10.1643H5.54579V10.5643H18.4882V10.1643ZM5.54579 10.1643C4.60922 10.1643 3.83125 10.9423 3.83125 11.8788H4.23125C4.23125 11.1632 4.83013 10.5643 5.54579 10.5643V10.1643ZM3.83125 11.8788V20.4841H4.23125V11.8788H3.83125ZM3.83125 20.4841C3.83125 21.4207 4.60922 22.1987 5.54579 22.1987V21.7987C4.83013 21.7987 4.23125 21.1998 4.23125 20.4841H3.83125ZM5.54579 22.1987H18.5226V21.7987H5.54579V22.1987ZM18.5226 22.1987C19.4592 22.1987 20.2371 21.4207 20.2371 20.4841H19.8371C19.8371 21.1998 19.2383 21.7987 18.5226 21.7987V22.1987ZM20.2371 20.4841V11.8788H19.8371V20.4841H20.2371ZM20.2371 11.8788C20.2371 10.9393 19.4562 10.1643 18.4882 10.1643V10.5643C19.2412 10.5643 19.8371 11.1661 19.8371 11.8788H20.2371Z" fill="white" mask="url(#path-2-outside-1_55225_32059)"/>
<path d="M12.875 6.68127V6.58127H12.775H11.2605H11.1605V6.68127V21.4136V21.5136H11.2605H12.775H12.875V21.4136V6.68127Z" fill="white" stroke="white" stroke-width="0.2"/>
<path d="M11.1605 4.82255C11.1605 6.42673 12.4789 7.74509 14.083 7.74509C15.6872 7.74509 17.0056 6.42673 17.0056 4.82255C17.0056 3.21836 15.6872 1.9 14.083 1.9C12.4789 1.9 11.1605 3.21836 11.1605 4.82255ZM12.875 4.82255C12.875 4.15493 13.4154 3.61454 14.083 3.61454C14.7507 3.61454 15.2911 4.15493 15.2911 4.82255C15.2911 5.49016 14.7507 6.03055 14.083 6.03055C13.4154 6.03055 12.875 5.49016 12.875 4.82255Z" fill="white" stroke="white" stroke-width="0.2"/>
<path d="M7.02891 4.82255C7.02891 6.42673 8.34727 7.74509 9.95145 7.74509C11.5556 7.74509 12.874 6.42673 12.874 4.82255C12.874 3.21836 11.5556 1.9 9.95145 1.9C8.34727 1.9 7.02891 3.21836 7.02891 4.82255ZM8.74344 4.82255C8.74344 4.15493 9.28383 3.61454 9.95145 3.61454C10.6191 3.61454 11.1595 4.15493 11.1595 4.82255C11.1595 5.49016 10.6191 6.03055 9.95145 6.03055C9.28383 6.03055 8.74344 5.49016 8.74344 4.82255Z" fill="white" stroke="white" stroke-width="0.2"/>
</svg>
