<svg width="40" height="40" viewBox="0 0 40 40" fill="none" xmlns="http://www.w3.org/2000/svg">
<g clip-path="url(#clip0_55499_9047)">
<path d="M0 30V27.7917C0 26.7204 0.576389 25.8484 1.72917 25.1757C2.88194 24.503 4.39411 24.1667 6.26567 24.1667C6.60358 24.1667 6.92851 24.1736 7.24046 24.1875C7.55237 24.2014 7.86111 24.2313 8.16667 24.2772C7.94444 24.7591 7.77778 25.2475 7.66667 25.7424C7.55556 26.2373 7.5 26.7537 7.5 27.2917V30H0ZM10 30V27.2917C10 26.4028 10.2431 25.5903 10.7292 24.8542C11.2153 24.1181 11.9028 23.4722 12.7917 22.9167C13.6806 22.3611 14.7431 21.9444 15.9792 21.6667C17.2153 21.3889 18.5556 21.25 20 21.25C21.4722 21.25 22.8264 21.3889 24.0625 21.6667C25.2986 21.9444 26.3611 22.3611 27.25 22.9167C28.1389 23.4722 28.8194 24.1181 29.2917 24.8542C29.7639 25.5903 30 26.4028 30 27.2917V30H10ZM32.5 30V27.2917C32.5 26.74 32.4514 26.2201 32.3542 25.732C32.2569 25.244 32.0972 24.7601 31.875 24.2803C32.1806 24.2323 32.4885 24.2014 32.7988 24.1875C33.1091 24.1736 33.4262 24.1667 33.75 24.1667C35.625 24.1667 37.1354 24.4968 38.2812 25.157C39.4271 25.8172 40 26.6954 40 27.7917V30H32.5ZM12.5 27.5H27.5V27.25C27.5 26.2222 26.7986 25.3819 25.3958 24.7292C23.9931 24.0764 22.1944 23.75 20 23.75C17.8056 23.75 16.0069 24.0764 14.6042 24.7292C13.2014 25.3819 12.5 26.2361 12.5 27.2917V27.5ZM6.23196 22.9167C5.43843 22.9167 4.75694 22.6311 4.1875 22.0599C3.61806 21.4887 3.33333 20.8021 3.33333 20C3.33333 19.1944 3.61892 18.5069 4.19008 17.9375C4.76128 17.3681 5.44792 17.0833 6.25 17.0833C7.05556 17.0833 7.74306 17.3681 8.3125 17.9375C8.88194 18.5069 9.16667 19.2005 9.16667 20.018C9.16667 20.8116 8.88194 21.4931 8.3125 22.0625C7.74306 22.6319 7.04954 22.9167 6.23196 22.9167ZM33.732 22.9167C32.9384 22.9167 32.2569 22.6311 31.6875 22.0599C31.1181 21.4887 30.8333 20.8021 30.8333 20C30.8333 19.1944 31.1189 18.5069 31.6901 17.9375C32.2613 17.3681 32.9479 17.0833 33.75 17.0833C34.5556 17.0833 35.2431 17.3681 35.8125 17.9375C36.3819 18.5069 36.6667 19.2005 36.6667 20.018C36.6667 20.8116 36.3819 21.4931 35.8125 22.0625C35.2431 22.6319 34.5495 22.9167 33.732 22.9167ZM20 20C18.6111 20 17.4306 19.5139 16.4583 18.5417C15.4861 17.5694 15 16.3889 15 15C15 13.5833 15.4861 12.3958 16.4583 11.4375C17.4306 10.4792 18.6111 10 20 10C21.4167 10 22.6042 10.4792 23.5625 11.4375C24.5208 12.3958 25 13.5833 25 15C25 16.3889 24.5208 17.5694 23.5625 18.5417C22.6042 19.5139 21.4167 20 20 20ZM20.0146 17.5C20.7271 17.5 21.3194 17.259 21.7917 16.777C22.2639 16.2951 22.5 15.6978 22.5 14.9854C22.5 14.2729 22.2618 13.6806 21.7855 13.2083C21.3091 12.7361 20.7188 12.5 20.0146 12.5C19.3104 12.5 18.7153 12.7382 18.2292 13.2145C17.7431 13.6909 17.5 14.2812 17.5 14.9854C17.5 15.6896 17.741 16.2847 18.223 16.7708C18.7049 17.2569 19.3022 17.5 20.0146 17.5Z" fill="#00EBB0"/>
</g>
<defs>
<clipPath id="clip0_55499_9047">
<rect width="40" height="40" fill="white"/>
</clipPath>
</defs>
</svg>
