<svg width="24" height="24" viewBox="0 0 24 24" fill="none" xmlns="http://www.w3.org/2000/svg">
<path d="M10.0101 15.6202C9.69218 15.9028 9.35547 16.1878 9 16.475C7.35 15.1417 6.10417 13.8583 5.2625 12.625C4.42083 11.3917 4 10.2333 4 9.15C4 8.21667 4.17083 7.42083 4.5125 6.7625C4.85417 6.10417 5.275 5.57083 5.775 5.1625C6.275 4.75417 6.81667 4.45833 7.4 4.275C7.98333 4.09167 8.51667 4 9 4C9.48333 4 10.0167 4.09167 10.6 4.275C11.1833 4.45833 11.725 4.75417 12.225 5.1625C12.725 5.57083 13.1458 6.10417 13.4875 6.7625C13.8292 7.42083 14 8.21667 14 9.15C14 9.32795 13.9886 9.50793 13.9659 9.68993C14.597 9.38592 15.2807 9.17381 15.9997 9.07093C15.9904 7.9204 15.778 6.90925 15.3625 6.0375C14.9375 5.14583 14.3917 4.4 13.725 3.8C13.0583 3.2 12.3083 2.75 11.475 2.45C10.6417 2.15 9.81667 2 9 2C8.18333 2 7.35833 2.15 6.525 2.45C5.69167 2.75 4.94167 3.2 4.275 3.8C3.60833 4.4 3.0625 5.14583 2.6375 6.0375C2.2125 6.92917 2 7.96667 2 9.15C2 10.7167 2.57917 12.3167 3.7375 13.95C4.89583 15.5833 6.65 17.2667 9 19C9.45248 18.6663 9.88287 18.3344 10.2912 18.0043C10.1017 17.3693 10 16.6966 10 16C10 15.8726 10.0034 15.746 10.0101 15.6202Z" fill="#1C1B1F"/>
<path d="M11.2547 20H2V22H13.3924C12.5469 21.4905 11.8179 20.8074 11.2547 20Z" fill="#1C1B1F"/>
<path d="M10.4125 10.4125C10.0208 10.8042 9.55 11 9 11C8.45 11 7.97917 10.8042 7.5875 10.4125C7.19583 10.0208 7 9.55 7 9C7 8.45 7.19583 7.97917 7.5875 7.5875C7.97917 7.19583 8.45 7 9 7C9.55 7 10.0208 7.19583 10.4125 7.5875C10.8042 7.97917 11 8.45 11 9C11 9.55 10.8042 10.0208 10.4125 10.4125Z" fill="#1C1B1F"/>
<path d="M16 21L15.7 19.5C15.5 19.4167 15.3125 19.3292 15.1375 19.2375C14.9625 19.1458 14.7833 19.0333 14.6 18.9L13.15 19.35L12.15 17.65L13.3 16.65C13.2667 16.4167 13.25 16.2 13.25 16C13.25 15.8 13.2667 15.5833 13.3 15.35L12.15 14.35L13.15 12.65L14.6 13.1C14.7833 12.9667 14.9625 12.8542 15.1375 12.7625C15.3125 12.6708 15.5 12.5833 15.7 12.5L16 11H18L18.3 12.5C18.5 12.5833 18.6875 12.675 18.8625 12.775C19.0375 12.875 19.2167 13 19.4 13.15L20.85 12.65L21.85 14.4L20.7 15.4C20.7333 15.6 20.75 15.8083 20.75 16.025C20.75 16.2417 20.7333 16.45 20.7 16.65L21.85 17.65L20.85 19.35L19.4 18.9C19.2167 19.0333 19.0375 19.1458 18.8625 19.2375C18.6875 19.3292 18.5 19.4167 18.3 19.5L18 21H16ZM17 18C17.55 18 18.0208 17.8042 18.4125 17.4125C18.8042 17.0208 19 16.55 19 16C19 15.45 18.8042 14.9792 18.4125 14.5875C18.0208 14.1958 17.55 14 17 14C16.45 14 15.9792 14.1958 15.5875 14.5875C15.1958 14.9792 15 15.45 15 16C15 16.55 15.1958 17.0208 15.5875 17.4125C15.9792 17.8042 16.45 18 17 18Z" fill="#1C1B1F"/>
</svg>
