<svg width="56" height="61" viewBox="0 0 56 61" fill="none" xmlns="http://www.w3.org/2000/svg">
<g clip-path="url(#clip0_55664_8035)">
<mask id="mask0_55664_8035" style="mask-type:luminance" maskUnits="userSpaceOnUse" x="-4" y="-3" width="64" height="67">
<path d="M59.2167 -2.56396H-3.78027V63.564H59.2167V-2.56396Z" fill="white"/>
</mask>
<g mask="url(#mask0_55664_8035)">
<path d="M25.3059 37.1682C24.279 35.6752 23.416 38.3778 23.7246 38.7117C24.0333 39.0455 24.4113 37.9746 24.8838 38.1195C25.5138 38.3274 25.835 39.2975 27.1706 39.3794C26.3327 38.9258 25.7658 37.8234 25.2807 37.1556" fill="white"/>
</g>
<mask id="mask1_55664_8035" style="mask-type:luminance" maskUnits="userSpaceOnUse" x="0" y="0" width="56" height="61">
<path d="M55.4374 0H0V61H55.4374V0Z" fill="white"/>
</mask>
<g mask="url(#mask1_55664_8035)">
<path d="M29.9612 37.1682C29.5076 37.836 28.9343 38.9385 28.0713 39.392C29.4005 39.2975 29.6966 38.3274 30.3581 38.1321C30.8243 37.9872 31.1833 39.0834 31.5172 38.7243C31.8511 38.3652 30.9565 35.6878 29.9297 37.1808" fill="white"/>
<path d="M54.2716 25.0917C54.44 25.0121 54.6239 24.9708 54.8102 24.9708C54.9965 24.9708 55.1804 25.0121 55.3488 25.0917C53.8432 21.5009 48.4191 24.9909 48.4191 24.9909C48.4191 24.1404 48.5136 22.345 48.5136 22.345C48.3372 22.0301 48.1231 21.6521 47.8837 21.2426C47.8837 20.9339 47.8837 20.6126 47.8837 20.3039C47.8837 20.1968 47.8837 20.0897 47.8837 19.9763L47.827 19.1511C47.827 19.0377 47.827 18.9243 47.827 18.8109C47.827 18.6975 47.827 18.6345 47.827 18.5526C47.6817 17.0467 47.3473 15.5651 46.8316 14.1428L48.0475 15.1193C47.8555 13.5371 47.053 12.0926 45.8111 11.0938L47.3293 11.2765C46.9342 10.765 46.4287 10.3492 45.8507 10.0602C45.2726 9.77114 44.6367 9.61625 43.9905 9.60704C43.9905 9.60704 44.318 6.68398 42.888 4.59878L42.5604 6.82888C42.5604 6.82888 40.8469 2.1104 33.029 0.62997C26.8742 -0.566973 23.1006 2.51988 20.2784 3.14985C17.4561 3.77982 15.6292 0.926056 15.2386 0C14.5858 1.54965 14.2991 3.22898 14.4008 4.90747C13.4871 3.6511 12.8711 2.2035 12.599 0.674068C12.1765 1.38881 11.8543 2.15829 11.6415 2.96086V3.03016C11.5956 3.18133 11.5577 3.33484 11.5281 3.49003C11.5281 3.55303 11.4966 3.62233 11.484 3.68532L11.4084 4.06961L11.3706 4.32159C11.3706 4.44759 11.3328 4.57358 11.3202 4.70588C11.3076 4.83817 11.3202 4.88857 11.2887 4.98936C11.2572 5.09016 11.2887 5.26025 11.2572 5.39884C11.2257 5.53744 11.2572 5.58783 11.2572 5.68863C11.2572 5.78942 11.2572 6.00361 11.2572 6.16741V6.42569C11.2572 6.67768 11.2572 6.93597 11.3013 7.20056C10.6307 6.95899 10.0048 6.60773 9.4492 6.16111C9.64819 7.35963 9.97992 8.53228 10.4383 9.65744C9.77609 10.9714 9.20974 12.3315 8.74363 13.727C7.89336 16.3577 7.44522 19.1017 7.4144 21.8663L6.89782 22.4962C6.89782 22.9372 6.96082 24.279 6.98602 24.9846C6.98602 24.9846 1.56827 21.4946 0.0563458 25.0854C0.22474 25.0058 0.408696 24.9645 0.59497 24.9645C0.781244 24.9645 0.9652 25.0058 1.13359 25.0854C0.442591 26.2115 0.0407334 27.4909 -0.0362044 28.8099C-0.113142 30.1288 0.137227 31.4463 0.692616 32.645C0.757735 32.3268 0.850481 32.0148 0.969802 31.7127C0.969802 31.7127 2.04705 38.6424 8.52944 41.0677C8.52944 41.0677 9.54369 44.3688 9.02082 45.7736C9.56614 45.6078 10.0626 45.311 10.4667 44.9091C10.8708 44.5071 11.1703 44.0123 11.3391 43.4679C11.1501 49.1377 14.363 49.6542 13.859 53.0687C13.859 53.0687 15.5221 51.0402 15.1189 48.6589C15.1189 48.6589 17.5695 53.7868 22.3384 55.746C22.0197 54.7415 21.7796 53.7136 21.6202 52.6718C23.4093 55.6327 27.7057 57.7997 26.5151 61C32.1848 57.0564 28.9342 55.7145 33.766 52.6718C33.6067 53.7136 33.3666 54.7415 33.0479 55.746C37.8419 53.7868 40.3177 48.6589 40.3177 48.6589C39.9271 51.0402 41.5777 53.0687 41.5777 53.0687C41.0737 49.6542 44.2865 49.1377 44.0975 43.4679C44.2637 44.0158 44.562 44.5145 44.9663 44.9198C45.3706 45.3252 45.8684 45.6249 46.4158 45.7925C45.893 44.3877 46.9072 41.0866 46.9072 41.0866C53.377 38.6676 54.4669 31.7316 54.4669 31.7316C54.5862 32.0337 54.6789 32.3457 54.744 32.6639C55.2994 31.4652 55.5498 30.1477 55.4729 28.8287C55.3959 27.5098 54.9941 26.2304 54.3031 25.1043M8.18926 29.785C8.06411 30.619 8.03873 31.4649 8.11366 32.3049C5.66938 29.5519 5.03941 32.8151 5.03941 32.8151C5.75757 31.6056 8.18926 33.8987 8.18926 33.8987C8.26187 35.6109 8.56272 37.3058 9.08382 38.9384C-1.21619 35.2153 2.51953 18.7605 8.18926 29.785ZM41.8108 12.1458C41.8803 12.4931 41.8803 12.8506 41.8108 13.1979L41.7415 13.6137L41.5777 13.2294C41.2064 11.9481 40.4252 10.8239 39.3539 10.0291L39.0011 9.78973L39.4295 9.82123C40.0195 9.91171 40.5657 10.1865 40.9901 10.6063C41.4144 11.0261 41.6951 11.5694 41.7919 12.1584M25.5008 4.2397C29.6397 2.64587 34.5724 3.04905 38.1002 5.27285L38.1821 5.32325C38.2058 5.33646 38.2271 5.35349 38.2451 5.37364C38.5991 5.62597 38.9359 5.90167 39.2531 6.19891L39.8831 6.82888L39.1019 6.3816C37.0124 5.19631 34.6872 4.48649 32.2919 4.3027C30.0461 4.20788 27.7965 4.26049 25.5575 4.46019L24.4488 4.64288L25.5008 4.2397ZM37.2057 18.3636H37.1301H37.1931M21.9604 7.14386C23.1195 7.77383 24.4803 7.63524 25.8284 7.48404L26.2505 7.43365C28.0888 7.08961 29.9749 7.08961 31.8131 7.43365L32.7581 7.66044H32.4683L32.8022 7.79273L33.8227 8.20851L32.7959 8.03212C30.8221 7.7418 28.8165 7.7418 26.8427 8.03212H26.7797C26.1067 8.11905 25.4296 8.16952 24.7512 8.18331C23.7018 8.25557 22.6628 7.93692 21.8344 7.28875L21.0343 6.58949L21.9604 7.14386ZM16.045 4.48539C17.2911 6.79047 19.0604 8.7712 21.2107 10.2685L21.3115 10.3441L21.8596 10.7725L22.4896 11.2954L21.7273 10.9615C19.4027 9.94723 16.4545 7.66044 15.8245 4.56098L15.667 3.77982L16.045 4.48539ZM37.3254 45.7988C36.6954 47.9596 34.8874 49.4778 32.6447 50.3535C29.44 51.6661 25.8506 51.6819 22.6345 50.3976C20.3162 49.5093 18.4767 47.9533 17.853 45.7106C17.8215 45.5909 17.8026 45.4712 17.7711 45.3452C20.8541 46.5491 24.1448 47.1314 27.4537 47.0588C31.3092 47.0588 34.9441 46.3721 37.4766 45.1688C37.4396 45.3818 37.3891 45.5923 37.3254 45.7988ZM37.8482 39.392C37.8482 39.392 39.1523 41.7418 38.6987 44.0286C38.6987 44.0286 38.3396 42.6868 37.4388 42.2647C37.5255 42.7091 37.574 43.1601 37.5837 43.6128C35.2528 44.9169 31.5107 45.6917 27.4663 45.6917C23.6172 45.6917 19.9886 44.9736 17.6451 43.8018C17.6584 43.2953 17.7196 42.7912 17.8278 42.2962C16.9143 42.7183 16.5679 44.0601 16.5679 44.0601C16.108 41.7733 17.4183 39.4235 17.4183 39.4235C10.0792 39.3227 10.8918 30.8307 10.8918 30.8307C10.8918 30.8307 12.4605 30.7362 12.725 31.2591C12.9896 31.782 12.0384 38.1888 20.4611 37.5588C20.4611 37.5588 25.4252 37.3005 26.6033 32.9222C26.9282 32.7424 27.2934 32.6481 27.6648 32.6481C28.0361 32.6481 28.4014 32.7424 28.7263 32.9222C29.898 37.3005 34.8622 37.5588 34.8622 37.5588C43.2912 38.2455 42.3462 31.8135 42.6045 31.2591C42.8628 30.7047 44.4314 30.8307 44.4314 30.8307C45.011 35.0515 42.384 39.3479 37.8482 39.392ZM24.9969 28.9786C25.1817 29.195 25.3306 29.4396 25.4378 29.7031H14.0102C14.024 29.4455 14.1043 29.1959 14.2433 28.9786H24.9969ZM15.5095 28.0022C16.7815 27.5364 18.1238 27.2914 19.4783 27.2777H20.7383H21.154C22.0551 27.3474 22.9353 27.5846 23.7495 27.977L15.5095 28.0022ZM25.6457 30.6228C25.6545 30.865 25.6418 31.1074 25.6079 31.3473H13.8968C13.8968 31.089 13.8968 30.8433 13.8968 30.6228H25.6457ZM15.0685 34.6924L14.9866 34.6484C14.7968 34.4616 14.6335 34.2497 14.5016 34.0184H24.5307C24.3533 34.2599 24.1551 34.4854 23.9385 34.6924H15.0685ZM22.7542 35.6437C22.2971 35.9262 21.8001 36.1386 21.28 36.2737L21.1225 36.3178H21.0784C20.6021 36.4002 20.1192 36.4382 19.6358 36.4312C18.982 36.4398 18.3297 36.3636 17.6955 36.2044C17.2194 36.0832 16.7602 35.9033 16.3285 35.6689L22.7542 35.6437ZM14.1236 33.023C14.0551 32.7857 14.0046 32.5435 13.9724 32.2986H25.3685C25.2862 32.5455 25.1894 32.7874 25.0788 33.023H14.1236ZM41.0926 28.9786C41.2316 29.1959 41.3119 29.4455 41.3257 29.7031H29.898C30.0077 29.4408 30.1564 29.1965 30.339 28.9786H41.0926ZM31.5674 28.0022C32.3794 27.6098 33.2575 27.3727 34.1566 27.3029H34.5724H35.8323C37.1869 27.3166 38.5291 27.5616 39.8012 28.0274L31.5674 28.0022ZM41.4265 30.6228C41.4265 30.8433 41.4265 31.089 41.4265 31.3473H29.7342C29.6972 31.1077 29.6845 30.865 29.6964 30.6228H41.4265ZM31.4037 34.6924C31.1734 34.4693 30.9627 34.227 30.7737 33.968H40.8406C40.7064 34.1995 40.5411 34.4114 40.3492 34.598L40.2673 34.6672L31.4037 34.6924ZM39.0074 35.6437C38.5683 35.883 38.1005 36.065 37.6152 36.1855C36.997 36.3383 36.362 36.4124 35.7252 36.406C35.2377 36.4132 34.7506 36.3752 34.27 36.2926C34.1945 36.2828 34.1204 36.2637 34.0495 36.2359C33.5487 36.1118 33.0689 35.9144 32.6258 35.65L39.0074 35.6437ZM30.2382 33.023C30.1228 32.7887 30.0239 32.5466 29.9421 32.2986H41.3635C41.3304 32.5428 41.282 32.7848 41.2186 33.023H30.2382ZM29.9799 27.0257C28.7767 27.7439 28.4428 29.5456 27.5482 29.6338C26.8112 29.5708 25.9355 27.7439 24.9969 27.1517C21.3556 24.7704 12.9329 26.9942 10.6776 27.2651C10.917 22.1119 15.0874 19.4094 18.6657 19.1133C20.4296 20.159 23.6928 20.789 27.4474 20.789C31.2021 20.789 34.5787 20.0834 36.267 19.044C38.3081 19.2078 44.4125 20.3039 44.7401 27.2336C42.9573 27.0194 33.0227 25.1799 29.9799 26.9942M44.9669 14.4893L44.7275 14.3822C43.203 13.8782 42.951 13.7522 42.951 13.557V13.4499H43.0644C43.6908 13.447 44.3019 13.6434 44.8094 14.0105H44.8535L44.8913 14.0483C44.9732 14.1239 45.0488 14.1932 45.1118 14.2625L45.4142 14.6027L44.9669 14.4893ZM46.8064 38.951C47.3311 37.3191 47.6341 35.624 47.7073 33.9113C47.7073 33.9113 50.1075 31.6182 50.8571 32.8277C50.8571 32.8277 50.2272 29.5645 47.7892 32.3049C47.8705 31.4651 47.8451 30.6184 47.7136 29.785C53.3833 18.7605 57.1127 35.2153 46.8379 38.951" fill="white"/>
</g>
</g>
<defs>
<clipPath id="clip0_55664_8035">
<rect width="55.4374" height="61" fill="white"/>
</clipPath>
</defs>
</svg>
