<svg width="80" height="80" viewBox="0 0 80 80" fill="none" xmlns="http://www.w3.org/2000/svg">
<rect width="80" height="80" rx="24" fill="#3BFFC2"/>
<g clip-path="url(#clip0_55557_4428)">
<mask id="mask0_55557_4428" style="mask-type:luminance" maskUnits="userSpaceOnUse" x="8" y="6" width="64" height="68">
<path d="M71.818 6.39398H8.18164V73.606H71.818V6.39398Z" fill="white"/>
</mask>
<g mask="url(#mask0_55557_4428)">
<path d="M37.5618 46.7775C36.5245 45.26 35.6527 48.0069 35.9646 48.3463C36.2764 48.6856 36.6582 47.5971 37.1355 47.7444C37.7718 47.9557 38.0964 48.9417 39.4455 49.025C38.5991 48.564 38.0264 47.4435 37.5364 46.7647" fill="#242322"/>
</g>
<mask id="mask1_55557_4428" style="mask-type:luminance" maskUnits="userSpaceOnUse" x="12" y="9" width="56" height="62">
<path d="M68 9H12V71H68V9Z" fill="white"/>
</mask>
<g mask="url(#mask1_55557_4428)">
<path d="M42.2646 46.7775C41.8064 47.4563 41.2273 48.5768 40.3555 49.0378C41.6982 48.9418 41.9973 47.9557 42.6655 47.7572C43.1364 47.6099 43.4991 48.7241 43.8364 48.3591C44.1736 47.9941 43.27 45.2729 42.2327 46.7904" fill="#242322"/>
<path d="M66.8219 34.503C66.992 34.4221 67.1778 34.3801 67.366 34.3801C67.5542 34.3801 67.74 34.4221 67.9101 34.503C66.3892 30.8534 60.9101 34.4006 60.9101 34.4006C60.9101 33.5362 61.0055 31.7113 61.0055 31.7113C60.8274 31.3912 60.611 31.007 60.3692 30.5908C60.3692 30.2771 60.3692 29.9505 60.3692 29.6368C60.3692 29.5279 60.3692 29.4191 60.3692 29.3038L60.3119 28.465C60.3119 28.3498 60.3119 28.2345 60.3119 28.1193C60.3119 28.004 60.3119 27.94 60.3119 27.8568C60.1652 26.3262 59.8274 24.8203 59.3064 23.3747L60.5346 24.3671C60.3407 22.7591 59.53 21.2909 58.2755 20.2756L59.8092 20.4613C59.41 19.9415 58.8995 19.5189 58.3155 19.2251C57.7316 18.9313 57.0893 18.7739 56.4364 18.7645C56.4364 18.7645 56.7674 15.7936 55.3228 13.6742L54.9919 15.9408C54.9919 15.9408 53.261 11.145 45.3637 9.6403C39.1464 8.42373 35.3346 11.5612 32.4837 12.2015C29.6328 12.8418 27.7874 9.94124 27.3928 9C26.7333 10.5751 26.4437 12.2819 26.5464 13.9879C25.6236 12.711 25.0012 11.2396 24.7264 9.68512C24.2996 10.4116 23.9741 11.1937 23.7592 12.0094V12.0798C23.7128 12.2335 23.6746 12.3895 23.6446 12.5472C23.6446 12.6113 23.6128 12.6817 23.6001 12.7457L23.5237 13.1363L23.4855 13.3924C23.4855 13.5205 23.4474 13.6486 23.4346 13.783C23.4219 13.9175 23.4346 13.9687 23.4028 14.0712C23.371 14.1736 23.4028 14.3465 23.371 14.4873C23.3392 14.6282 23.371 14.6794 23.371 14.7819C23.371 14.8843 23.371 15.102 23.371 15.2685V15.531C23.371 15.7872 23.371 16.0497 23.4155 16.3186C22.7381 16.0731 22.1058 15.7161 21.5446 15.2621C21.7456 16.4803 22.0807 17.6722 22.5437 18.8158C21.8748 20.1512 21.3027 21.5336 20.8319 22.9521C19.973 25.6259 19.5203 28.4149 19.4892 31.2247L18.9674 31.865C18.9674 32.3132 19.031 33.6771 19.0564 34.3942C19.0564 34.3942 13.5837 30.8469 12.0564 34.4966C12.2265 34.4157 12.4124 34.3737 12.6005 34.3737C12.7887 34.3737 12.9745 34.4157 13.1446 34.4966C12.4466 35.6412 12.0407 36.9416 11.963 38.2821C11.8852 39.6227 12.1381 40.9618 12.6992 42.1802C12.765 41.8567 12.8586 41.5397 12.9792 41.2326C12.9792 41.2326 14.0674 48.2758 20.6155 50.741C20.6155 50.741 21.6401 54.0961 21.1119 55.524C21.6628 55.3555 22.1642 55.0538 22.5724 54.6453C22.9807 54.2368 23.2832 53.7339 23.4537 53.1805C23.2628 58.9432 26.5083 59.4682 25.9992 62.9387C25.9992 62.9387 27.6792 60.8769 27.2719 58.4566C27.2719 58.4566 29.7474 63.6686 34.5646 65.6599C34.2427 64.6389 34.0002 63.5942 33.8392 62.5353C35.6464 65.5447 39.9864 67.7473 38.7837 71C44.511 66.9917 41.2274 65.6279 46.1083 62.5353C45.9473 63.5942 45.7047 64.6389 45.3828 65.6599C50.2255 63.6686 52.7264 58.4566 52.7264 58.4566C52.3319 60.8769 53.9992 62.9387 53.9992 62.9387C53.4901 59.4682 56.7355 58.9432 56.5446 53.1805C56.7124 53.7374 57.0138 54.2442 57.4222 54.6562C57.8306 55.0683 58.3334 55.3729 58.8864 55.5432C58.3583 54.1154 59.3828 50.7602 59.3828 50.7602C65.9183 48.3015 67.0192 41.2518 67.0192 41.2518C67.1397 41.5589 67.2334 41.8759 67.2992 42.1994C67.8602 40.981 68.1131 39.6419 68.0354 38.3014C67.9577 36.9608 67.5517 35.6604 66.8537 34.5159M20.2719 39.2733C20.1455 40.1209 20.1198 40.9807 20.1955 41.8344C17.7264 39.0364 17.0901 42.3531 17.0901 42.3531C17.8155 41.1237 20.2719 43.4544 20.2719 43.4544C20.3453 45.1947 20.6491 46.9174 21.1755 48.5768C10.771 44.7926 14.5446 28.0681 20.2719 39.2733ZM54.2346 21.3449C54.3049 21.6979 54.3049 22.0613 54.2346 22.4142L54.1646 22.8368L53.9992 22.4462C53.6241 21.144 52.835 20.0014 51.7528 19.1935L51.3964 18.9502L51.8292 18.9822C52.4252 19.0742 52.977 19.3535 53.4056 19.7802C53.8343 20.2069 54.1178 20.7591 54.2155 21.3577M37.7592 13.3092C41.9401 11.6892 46.9228 12.099 50.4864 14.3593L50.5692 14.4105C50.593 14.4239 50.6145 14.4413 50.6328 14.4617C50.9904 14.7182 51.3305 14.9984 51.651 15.3005L52.2874 15.9408L51.4983 15.4862C49.3875 14.2815 47.0387 13.56 44.6192 13.3732C42.3506 13.2769 40.0781 13.3303 37.8164 13.5333L36.6964 13.719L37.7592 13.3092ZM49.5828 27.6647H49.5064H49.5701M34.1828 16.261C35.3537 16.9013 36.7283 16.7604 38.0901 16.6067L38.5164 16.5555C40.3734 16.2058 42.2786 16.2058 44.1355 16.5555L45.0901 16.786H44.7974L45.1346 16.9205L46.1655 17.3431L45.1283 17.1638C43.1344 16.8687 41.1084 16.8687 39.1146 17.1638H39.051C38.3712 17.2522 37.6872 17.3034 37.0019 17.3175C35.9419 17.3909 34.8924 17.067 34.0555 16.4082L33.2474 15.6975L34.1828 16.261ZM28.2074 13.5589C29.4661 15.9018 31.2533 17.915 33.4255 19.4368L33.5274 19.5137L34.081 19.9491L34.7174 20.4805L33.9474 20.1412C31.5992 19.1103 28.621 16.786 27.9846 13.6358L27.8255 12.8418L28.2074 13.5589ZM49.7037 55.5496C49.0674 57.7458 47.241 59.289 44.9755 60.179C41.7383 61.5131 38.1125 61.5292 34.8637 60.2238C32.5219 59.321 30.6637 57.7394 30.0337 55.46C30.0019 55.3383 29.9828 55.2167 29.951 55.0886C33.0653 56.3122 36.3894 56.9041 39.7319 56.8302C43.6264 56.8302 47.2983 56.1323 49.8564 54.9093C49.8191 55.1258 49.7681 55.3397 49.7037 55.5496ZM50.2319 49.0378C50.2319 49.0378 51.5492 51.4261 51.091 53.7504C51.091 53.7504 50.7283 52.3866 49.8183 51.9576C49.9059 52.4093 49.9548 52.8677 49.9646 53.3278C47.6101 54.6532 43.8301 55.4408 39.7446 55.4408C35.8564 55.4408 32.191 54.7108 29.8237 53.5199C29.8372 53.0051 29.899 52.4927 30.0083 51.9896C29.0855 52.4186 28.7355 53.7824 28.7355 53.7824C28.271 51.4581 29.5946 49.0698 29.5946 49.0698C22.181 48.9674 23.0019 40.3362 23.0019 40.3362C23.0019 40.3362 24.5864 40.2401 24.8537 40.7716C25.121 41.303 24.1601 47.8148 32.6683 47.1745C32.6683 47.1745 37.6828 46.912 38.8728 42.4619C39.201 42.2792 39.57 42.1833 39.9451 42.1833C40.3202 42.1833 40.6892 42.2792 41.0174 42.4619C42.201 46.912 47.2155 47.1745 47.2155 47.1745C55.7301 47.8725 54.7755 41.335 55.0364 40.7716C55.2974 40.2081 56.8819 40.3362 56.8819 40.3362C57.4674 44.6261 54.8137 48.993 50.2319 49.0378ZM37.2501 38.4537C37.4368 38.6736 37.5872 38.9222 37.6955 39.19H26.1519C26.1659 38.9282 26.247 38.6745 26.3874 38.4537H37.2501ZM27.6664 37.4612C28.9514 36.9879 30.3073 36.7388 31.6755 36.7249H32.9483H33.3683C34.2785 36.7957 35.1677 37.0368 35.9901 37.4356L27.6664 37.4612ZM37.9055 40.1249C37.9144 40.371 37.9016 40.6174 37.8674 40.8612H26.0374C26.0374 40.5987 26.0374 40.349 26.0374 40.1249H37.9055ZM27.221 44.2612L27.1383 44.2164C26.9465 44.0266 26.7816 43.8111 26.6483 43.5761H36.7792C36.6 43.8215 36.3998 44.0507 36.181 44.2612H27.221ZM34.9846 45.228C34.5229 45.5152 34.0209 45.731 33.4955 45.8683L33.3364 45.9131H33.2919C32.8107 45.9969 32.3229 46.0355 31.8346 46.0284C31.1741 46.0372 30.5153 45.9597 29.8746 45.7979C29.3937 45.6748 28.9298 45.4919 28.4937 45.2536L34.9846 45.228ZM26.2664 42.5644C26.1973 42.3231 26.1463 42.077 26.1137 41.828H37.6255C37.5423 42.079 37.4446 42.3249 37.3328 42.5644H26.2664ZM53.5092 38.4537C53.6496 38.6745 53.7307 38.9282 53.7446 39.19H42.201C42.3118 38.9234 42.4619 38.6751 42.6464 38.4537H53.5092ZM43.8874 37.4612C44.7076 37.0624 45.5946 36.8214 46.5028 36.7505H46.9228H48.1955C49.5638 36.7644 50.9197 37.0135 52.2046 37.4868L43.8874 37.4612ZM53.8464 40.1249C53.8464 40.349 53.8464 40.5987 53.8464 40.8612H42.0355C41.9981 40.6177 41.9853 40.371 41.9974 40.1249H53.8464ZM43.7219 44.2612C43.4893 44.0344 43.2764 43.7881 43.0855 43.5248H53.2546C53.1191 43.7601 52.9521 43.9756 52.7583 44.1651L52.6755 44.2356L43.7219 44.2612ZM51.4028 45.228C50.9593 45.4712 50.4867 45.6563 49.9964 45.7787C49.372 45.934 48.7306 46.0093 48.0874 46.0028C47.5949 46.0101 47.1028 45.9715 46.6174 45.8875C46.5411 45.8776 46.4663 45.8582 46.3946 45.8299C45.8887 45.7038 45.4041 45.5032 44.9564 45.2344L51.4028 45.228ZM42.5446 42.5644C42.4281 42.3262 42.3281 42.0802 42.2455 41.828H53.7828C53.7494 42.0763 53.7005 42.3223 53.6364 42.5644H42.5446ZM42.2837 36.4688C41.0683 37.1987 40.731 39.0299 39.8274 39.1196C39.0828 39.0556 38.1983 37.1987 37.2501 36.5968C33.5719 34.1765 25.0637 36.4367 22.7855 36.7121C23.0274 31.4744 27.2401 28.7276 30.8546 28.4266C32.6364 29.4895 35.9328 30.1298 39.7255 30.1298C43.5183 30.1298 46.9292 29.4127 48.6346 28.3562C50.6964 28.5227 56.8628 29.6368 57.1937 36.6801C55.3928 36.4624 45.3574 34.5927 42.2837 36.4367M57.4228 23.7268L57.181 23.618C55.641 23.1058 55.3864 22.9777 55.3864 22.7792V22.6704H55.501C56.1337 22.6675 56.751 22.867 57.2637 23.2402H57.3083L57.3464 23.2786C57.4292 23.3555 57.5055 23.4259 57.5692 23.4963L57.8746 23.8421L57.4228 23.7268ZM59.281 48.5896C59.811 46.9308 60.117 45.208 60.191 43.4672C60.191 43.4672 62.6155 41.1365 63.3728 42.3659C63.3728 42.3659 62.7364 39.0492 60.2737 41.8344C60.3558 40.9809 60.3302 40.1203 60.1974 39.2733C65.9246 28.0681 69.6919 44.7926 59.3128 48.5896" fill="#242322"/>
</g>
</g>
<defs>
<clipPath id="clip0_55557_4428">
<rect width="56" height="62" fill="white" transform="translate(12 9)"/>
</clipPath>
</defs>
</svg>
