<svg width="24" height="24" viewBox="0 0 24 24" fill="none" xmlns="http://www.w3.org/2000/svg">
<path d="M2.00285 9.05005L2.00285 9.04999C2.10807 6.84047 3.89632 5.05314 6.13915 4.94801L6.13967 4.94798C7.78496 4.87943 9.49868 4.84516 11.1781 4.84516H11.2781V4.94516V6.45201V6.55201H11.1781C9.53563 6.55201 7.89319 6.58623 6.25074 6.65466L6.24657 6.55475M2.00285 9.05005L17.3767 17.6849C17.3082 19.089 16.1781 20.2191 14.774 20.2876C11.9658 20.4246 9.08904 20.4246 6.24657 20.2876L6.25145 20.1877C6.25143 20.1877 6.25141 20.1877 6.25139 20.1877C4.8987 20.1217 3.8097 19.0327 3.74372 17.68C3.60689 14.8408 3.60689 12.0016 3.74372 9.16236C3.8097 7.80965 4.89874 6.72062 6.25145 6.65463L6.24657 6.55475M2.00285 9.05005C1.86572 11.9641 1.86571 14.8782 2.00285 17.7581L2.00285 9.05005ZM6.24657 6.55475C7.89041 6.48626 9.53425 6.45201 11.1781 6.45201L6.24657 6.55475ZM17.3795 12.8561C17.3795 14.4642 17.3452 16.0723 17.2768 17.6804L6.13908 21.8944C6.1391 21.8944 6.13913 21.8944 6.13915 21.8944C7.57911 21.9629 9.05327 21.9972 10.4931 21.9972C11.9329 21.9972 13.4066 21.9629 14.8448 21.9287L14.8471 21.9286C17.0905 21.8235 18.8783 20.0356 18.9835 17.7923L18.9835 17.7918C19.052 16.1466 19.0863 14.5013 19.0863 12.8561V12.7561H18.9863H17.4795H17.3795V12.8561Z" fill="white" stroke="white" stroke-width="0.2"/>
<path d="M15.5453 6.29814C15.7537 6.6456 16.1898 6.84214 16.5927 6.6943V8.30148C16.5927 8.76767 16.9799 9.15491 17.4461 9.15491C17.9093 9.15491 18.2995 8.77064 18.2995 8.33573V5.32203C18.2995 5.01257 18.1436 4.73951 17.8724 4.58452C17.6119 4.43568 17.3 4.39116 17.0217 4.54917L15.8934 5.1304L15.8933 5.13021L15.8878 5.13354C15.5073 5.36182 15.3078 5.863 15.5432 6.29458L15.5431 6.29462L15.5453 6.29814Z" fill="white" stroke="white" stroke-width="0.2"/>
<path d="M12.3102 6.79452C12.3102 9.48673 14.5125 11.689 17.2047 11.689C19.8969 11.689 22.0992 9.48673 22.0992 6.79452C22.0992 4.10231 19.8969 1.9 17.2047 1.9C14.5125 1.9 12.3102 4.10231 12.3102 6.79452ZM14.017 6.79452C14.017 5.03468 15.4448 3.60685 17.2047 3.60685C18.9645 3.60685 20.3923 5.03468 20.3923 6.79452C20.3923 8.55436 18.9645 9.98219 17.2047 9.98219C15.4448 9.98219 14.017 8.55436 14.017 6.79452Z" fill="white" stroke="white" stroke-width="0.2"/>
</svg>
