<svg width="24" height="24" viewBox="0 0 24 24" fill="none" xmlns="http://www.w3.org/2000/svg">
<path d="M18 1L18 8.725C18.6333 9.425 19.125 10.225 19.475 11.125C19.825 12.025 20 12.9833 20 14C20 16.2333 19.225 18.125 17.675 19.675C16.125 21.225 14.2333 22 12 22C9.76667 22 7.875 21.225 6.325 19.675C4.775 18.125 4 16.2333 4 14C4 12.9833 4.175 12.025 4.525 11.125C4.875 10.225 5.36667 9.425 6 8.725L6 0.999999L12 3L18 1ZM12 8C10.3333 8 8.91667 8.58333 7.75 9.75C6.58333 10.9167 6 12.3333 6 14C6 15.6667 6.58333 17.0833 7.75 18.25C8.91667 19.4167 10.3333 20 12 20C13.6667 20 15.0833 19.4167 16.25 18.25C17.4167 17.0833 18 15.6667 18 14C18 12.3333 17.4167 10.9167 16.25 9.75C15.0833 8.58333 13.6667 8 12 8ZM16 3.975L12 5L8 3.975L8 7.075C8.58333 6.74167 9.2125 6.47917 9.8875 6.2875C10.5625 6.09583 11.2667 6 12 6C12.7333 6 13.4375 6.09583 14.1125 6.2875C14.7875 6.47917 15.4167 6.74167 16 7.075L16 3.975Z" fill="black"/>
</svg>
