<svg width="44" height="44" viewBox="0 0 44 44" fill="none" xmlns="http://www.w3.org/2000/svg">
<path d="M12.8337 42.1667C11.8253 42.1667 10.9621 41.8076 10.2441 41.0896C9.52602 40.3715 9.16699 39.5083 9.16699 38.5V5.49999C9.16699 4.49166 9.52602 3.62847 10.2441 2.91041C10.9621 2.19236 11.8253 1.83333 12.8337 1.83333H31.167C32.1753 1.83333 33.0385 2.19236 33.7566 2.91041C34.4746 3.62847 34.8337 4.49166 34.8337 5.49999V38.5C34.8337 39.5083 34.4746 40.3715 33.7566 41.0896C33.0385 41.8076 32.1753 42.1667 31.167 42.1667H12.8337ZM12.8337 36.6667V38.5H31.167V36.6667H12.8337ZM12.8337 33H31.167V11H12.8337V33ZM12.8337 7.33333H31.167V5.49999H12.8337V7.33333Z" fill="white"/>
</svg>
