<svg width="40" height="40" viewBox="0 0 40 40" fill="none" xmlns="http://www.w3.org/2000/svg">
<path d="M20.0007 28.2083C20.334 28.2083 20.6257 28.0833 20.8757 27.8333C21.1257 27.5833 21.2507 27.2917 21.2507 26.9583C21.2507 26.625 21.1257 26.3333 20.8757 26.0833C20.6257 25.8333 20.334 25.7083 20.0007 25.7083C19.6673 25.7083 19.3757 25.8333 19.1257 26.0833C18.8757 26.3333 18.7507 26.625 18.7507 26.9583C18.7507 27.2917 18.8757 27.5833 19.1257 27.8333C19.3757 28.0833 19.6673 28.2083 20.0007 28.2083ZM20.0007 21.25C20.334 21.25 20.6257 21.125 20.8757 20.875C21.1257 20.625 21.2507 20.3333 21.2507 20C21.2507 19.6667 21.1257 19.375 20.8757 19.125C20.6257 18.875 20.334 18.75 20.0007 18.75C19.6673 18.75 19.3757 18.875 19.1257 19.125C18.8757 19.375 18.7507 19.6667 18.7507 20C18.7507 20.3333 18.8757 20.625 19.1257 20.875C19.3757 21.125 19.6673 21.25 20.0007 21.25ZM20.0007 14.2917C20.334 14.2917 20.6257 14.1667 20.8757 13.9167C21.1257 13.6667 21.2507 13.375 21.2507 13.0417C21.2507 12.7083 21.1257 12.4167 20.8757 12.1667C20.6257 11.9167 20.334 11.7917 20.0007 11.7917C19.6673 11.7917 19.3757 11.9167 19.1257 12.1667C18.8757 12.4167 18.7507 12.7083 18.7507 13.0417C18.7507 13.375 18.8757 13.6667 19.1257 13.9167C19.3757 14.1667 19.6673 14.2917 20.0007 14.2917ZM34.1673 33.3333H5.83398C5.14648 33.3333 4.55794 33.0885 4.06836 32.5989C3.57878 32.1094 3.33398 31.5208 3.33398 30.8333V24.4583C4.36176 24.2361 5.21593 23.7153 5.89648 22.8958C6.57704 22.0764 6.91732 21.1111 6.91732 20C6.91732 18.8889 6.57704 17.9167 5.89648 17.0833C5.21593 16.25 4.36176 15.7361 3.33398 15.5417V9.16666C3.33398 8.47916 3.57878 7.89061 4.06836 7.40103C4.55794 6.91145 5.14648 6.66666 5.83398 6.66666H34.1673C34.8548 6.66666 35.4434 6.91145 35.9329 7.40103C36.4225 7.89061 36.6673 8.47916 36.6673 9.16666V15.5417C35.6395 15.7361 34.7854 16.25 34.1048 17.0833C33.4243 17.9167 33.084 18.8889 33.084 20C33.084 21.1111 33.4243 22.0764 34.1048 22.8958C34.7854 23.7153 35.6395 24.2361 36.6673 24.4583V30.8333C36.6673 31.5208 36.4225 32.1094 35.9329 32.5989C35.4434 33.0885 34.8548 33.3333 34.1673 33.3333ZM34.1673 30.8333V26.2917C33.1118 25.5694 32.2506 24.6667 31.584 23.5833C30.9173 22.5 30.584 21.3055 30.584 20C30.584 18.6944 30.9173 17.5 31.584 16.4167C32.2506 15.3333 33.1118 14.4305 34.1673 13.7083V9.16666H5.83398V13.7083C6.91732 14.4305 7.78537 15.3333 8.43815 16.4167C9.09093 17.5 9.41732 18.6944 9.41732 20C9.41732 21.3055 9.09093 22.5 8.43815 23.5833C7.78537 24.6667 6.91732 25.5694 5.83398 26.2917V30.8333H34.1673Z" fill="#00EBB0"/>
</svg>
