<svg width="187" height="61" viewBox="0 0 187 61" fill="none" xmlns="http://www.w3.org/2000/svg">
<g clip-path="url(#clip0_54777_31570)">
<path d="M8.83648 50.8055V53.3042H11.204C13.1297 53.3042 13.5382 52.8044 13.5382 52.0132C13.5382 51.222 13.0963 50.7639 11.204 50.7639L8.83648 50.8055ZM8.83648 43.3096V45.75H11.4207C12.8462 45.75 13.2214 45.2253 13.2214 44.5006C13.2214 43.776 12.7796 43.3096 11.4207 43.3096H8.83648ZM0 60.3753V36.6466H11.8959C19.3986 36.6466 22.3746 38.7621 22.3746 43.0181C22.4642 44.147 22.1533 45.2714 21.4964 46.1942C20.8395 47.117 19.8784 47.7794 18.7817 48.0654C21.591 48.8982 23.0082 50.4724 23.0082 53.4458C23.0082 58.1598 19.4736 60.4086 12.7462 60.4086L0 60.3753Z" fill="#00ECAE"/>
<path d="M25.0088 48.9899V36.6466H34.2454V48.8899C34.2454 51.4635 34.9457 52.3547 36.3962 52.3547C37.8467 52.3547 38.4803 51.5218 38.4803 48.8899V36.6466H47.7252V48.9899C47.7252 57.3686 43.6238 60.9333 36.3628 60.9333C28.1599 60.9333 25.0088 57.2687 25.0088 48.9899Z" fill="#00ECAE"/>
<path d="M49.6426 52.4214H59.371V52.4713C59.5544 53.6207 60.8466 54.1371 62.4305 54.1371C63.8476 54.1371 64.3812 53.7706 64.3812 53.146C64.3812 52.2215 63.0557 51.9549 58.8959 51.4802C53.594 50.8555 50.0844 49.0982 50.0844 44.2175C50.0844 39.037 54.2526 35.8387 61.3551 35.8387C68.2075 35.8387 72.0839 38.2458 73.0926 44.1176H63.9227C63.7309 42.9932 62.7556 42.4518 61.08 42.4518C59.5628 42.4518 59.0876 42.9765 59.0876 43.5429C59.0876 44.3757 60.263 44.5673 64.3311 45.0254C69.5997 45.6501 73.3594 47.3075 73.3594 52.5213C73.3594 57.7351 69.8248 60.9334 61.7719 60.9334C53.0355 60.9334 50.1011 57.8351 49.6509 52.3547" fill="#00ECAE"/>
<path d="M96.5848 49.3813V60.3753H88.1318V36.6133H96.5598L103.879 47.2075V36.6133H112.307V60.3753H104.129L96.5848 49.3813Z" fill="#00ECAE"/>
<path d="M135.707 60.3753H115.633V36.6133H135.49V43.8093H124.186V45.5584H135.048V51.0304H124.186V52.8461H135.707V60.3753Z" fill="#00ECAE"/>
<path d="M137.94 52.4213H147.661V52.4713C147.852 53.6206 149.144 54.137 150.72 54.137C152.137 54.137 152.679 53.7706 152.679 53.1459C152.679 52.2214 151.354 51.9549 147.185 51.4802C141.883 50.9055 138.382 49.1398 138.382 44.2674C138.382 39.0869 142.55 35.8887 149.645 35.8887C156.497 35.8887 160.382 38.2957 161.39 44.1675H152.221C152.029 43.0431 151.053 42.5017 149.378 42.5017C147.869 42.5017 147.394 43.0264 147.394 43.5928C147.394 44.4257 148.561 44.6172 152.629 45.0753C157.898 45.7 161.657 47.3574 161.657 52.5712C161.657 57.785 158.123 60.9833 150.078 60.9833C141.333 60.9833 138.407 57.885 137.957 52.4046" fill="#00ECAE"/>
<path d="M163.3 52.4214H173.02V52.4713C173.203 53.6207 174.504 54.1371 176.079 54.1371C177.497 54.1371 178.038 53.7706 178.038 53.146C178.038 52.2215 176.713 51.9549 172.545 51.4802C167.243 50.8555 163.742 49.0982 163.742 44.2175C163.742 39.037 167.91 35.8387 175.004 35.8387C181.856 35.8887 185.733 38.3124 186.733 44.1425H177.563C177.371 43.0182 176.396 42.4768 174.721 42.4768C173.203 42.4768 172.737 43.0015 172.737 43.5679C172.737 44.4007 173.904 44.5923 177.972 45.0504C183.24 45.675 187 47.3325 187 52.5463C187 57.7601 183.465 60.9584 175.412 60.9584C166.676 60.9584 163.742 57.86 163.3 52.3797" fill="#00ECAE"/>
<path d="M84.4883 36.5717H75.7686V60.4003H84.4883V36.5717Z" fill="#00ECAE"/>
<path d="M95.3003 7.4209L89.6816 14.5837V7.4209H80.8701V31.1829H89.6816V25.0113L91.5406 22.6709L95.7087 31.1829H105.712L98.1679 16.7325L105.779 7.4209H95.3003Z" fill="white"/>
<path d="M116.409 21.8463H127.271V16.366H116.409V14.617H127.713V7.4209H107.855V31.1829H127.929V23.662H116.409V21.8463Z" fill="white"/>
<path d="M144.393 7.4209L141.334 13.401L138.366 7.4209H128.996L136.69 22.0796V31.1829H145.844V21.9796L153.738 7.4209H144.393Z" fill="white"/>
<path d="M51.4517 23.9786C51.7734 22.9694 51.9584 21.9218 52.0019 20.8636C52.0019 20.8636 53.4691 19.456 53.9109 20.1973C53.9109 20.1973 53.5274 18.1901 52.0352 19.8808C52.0815 19.3615 52.0647 18.8386 51.9852 18.3233C55.4448 11.5354 57.7373 21.6548 51.4517 23.9619M50.3179 8.9118L50.1595 8.8535C49.2175 8.537 49.0675 8.44539 49.0675 8.34544V8.27881H49.1842C49.5667 8.27974 49.9394 8.39904 50.2512 8.62029L50.393 8.75355L50.5764 8.96177L50.3179 8.9118ZM41.1647 16.6576C40.4227 17.099 40.2143 18.2067 39.6725 18.265C39.1306 18.3233 38.6805 17.1156 38.1053 16.7409C35.8461 15.25 30.7193 16.6576 29.3438 16.7825C29.3987 15.4931 29.9288 14.2696 30.8321 13.3471C31.7354 12.4246 32.9482 11.8683 34.2372 11.7852C35.9153 12.5542 37.7532 12.9112 39.5975 12.8263C41.4659 12.9121 43.3267 12.5374 45.016 11.7353C46.2665 11.8352 50.0178 12.5015 50.2096 16.7825C49.1092 16.6576 43.0237 15.5165 41.1647 16.6576ZM41.3147 20.3555C41.2477 20.2091 41.1893 20.059 41.1397 19.9058H48.1172C48.0986 20.0579 48.068 20.2083 48.0255 20.3555H41.3147ZM46.6833 21.938C46.4221 22.0868 46.1415 22.1989 45.8497 22.2712C45.4687 22.3701 45.0762 22.4177 44.6826 22.4128C44.3834 22.4198 44.0844 22.3947 43.7906 22.3378H43.6572C43.3626 22.2579 43.0816 22.1344 42.8236 21.9713L46.6833 21.938ZM42.0233 21.355C41.8901 21.2173 41.7675 21.0697 41.6565 20.9136H47.8004C47.723 21.0624 47.6216 21.1975 47.5003 21.3134L47.4502 21.355H42.0233ZM48.1672 18.8564C48.1672 18.9896 48.1672 19.1479 48.1672 19.3061H40.9979C40.9818 19.1566 40.9818 19.0058 40.9979 18.8564H48.1672ZM42.115 17.2406C42.611 16.998 43.1484 16.8511 43.6989 16.8075H43.9573H44.791C45.6194 16.8177 46.4399 16.9698 47.2168 17.2572L42.115 17.2406ZM47.9504 17.8236C48.0344 17.9563 48.0832 18.1082 48.0921 18.265H41.098C41.1656 18.1061 41.2554 17.9574 41.3647 17.8236H47.9504ZM31.4362 20.3222C31.3937 20.175 31.363 20.0246 31.3445 19.8725H38.347C38.2974 20.0256 38.2389 20.1758 38.1719 20.3222H31.4362ZM36.7214 21.9297C36.4391 22.0996 36.1328 22.2259 35.8128 22.3045H35.7211C35.43 22.3608 35.1338 22.3859 34.8374 22.3794C34.4356 22.3846 34.0348 22.337 33.6453 22.2379C33.354 22.1639 33.0737 22.0519 32.8117 21.9047L36.7214 21.9297ZM32.0114 21.3467L31.9614 21.305C31.8451 21.1848 31.7443 21.0505 31.6613 20.9052H37.8135C37.6999 21.0594 37.5775 21.2068 37.4467 21.3467H32.0114ZM38.4887 18.848C38.5048 18.9975 38.5048 19.1483 38.4887 19.2978H31.3195C31.3195 19.1395 31.3195 18.9813 31.3195 18.848H38.4887ZM32.2865 17.2406C33.0634 16.9532 33.884 16.8011 34.7124 16.7908H35.546H35.7961C36.3495 16.8332 36.8898 16.9802 37.3883 17.2239L32.2865 17.2406ZM38.1219 17.8236C38.2312 17.9574 38.321 18.1061 38.3887 18.265H31.3695C31.3785 18.1082 31.4272 17.9563 31.5112 17.8236H38.1219ZM45.9914 24.2451C46.4543 25.1213 46.6348 26.1191 46.5082 27.1019C46.3935 26.6549 46.1135 26.268 45.7246 26.0191C45.7831 26.293 45.8139 26.572 45.8163 26.852C43.8845 27.7696 41.7602 28.2095 39.6225 28.1346C37.5557 28.1937 35.502 27.7896 33.612 26.9519C33.6207 26.6412 33.6569 26.3318 33.7204 26.0274C33.3358 26.2791 33.0592 26.6653 32.9451 27.1102C32.8185 26.1275 32.999 25.1297 33.4619 24.2534C28.9853 24.2534 29.4855 18.9896 29.4855 18.9896C29.4855 18.9896 30.4442 18.9313 30.6026 19.2478C30.761 19.5643 30.1858 23.5288 35.3459 23.1124C35.3459 23.1124 38.3803 22.9458 39.1056 20.2556C39.3028 20.1447 39.5253 20.0864 39.7517 20.0864C39.978 20.0864 40.2005 20.1447 40.3977 20.2556C41.123 22.9458 44.1574 23.1124 44.1574 23.1124C49.3176 23.5288 48.7424 19.5726 48.9008 19.2478C49.0592 18.923 50.0178 18.9813 50.0178 18.9813C50.3763 21.5799 48.7674 24.2201 45.9914 24.2451ZM45.6746 28.1929C45.4443 28.8493 45.0659 29.4439 44.5686 29.9306C44.0713 30.4174 43.4685 30.7832 42.8069 30.9997C40.8401 31.7997 38.6382 31.7997 36.6714 30.9997C35.9895 30.7864 35.3683 30.4138 34.8594 29.9126C34.3505 29.4114 33.9686 28.7962 33.7454 28.118C33.7247 28.0439 33.708 27.9689 33.6953 27.8931C35.5813 28.6347 37.5961 28.9943 39.6225 28.9508C41.7253 28.9977 43.8149 28.6063 45.758 27.8015C45.7393 27.929 45.7086 28.0545 45.6663 28.1763M32.6116 2.76516C33.3748 4.17913 34.4564 5.39661 35.7711 6.32155H35.8378L36.1712 6.58807L36.563 6.91289L36.1045 6.70467C34.6707 6.12165 32.8701 4.71409 32.5116 2.8068L32.4032 2.30707L32.6116 2.76516ZM36.2379 4.43091C36.9855 4.74739 37.814 4.82025 38.6054 4.63913H38.8639C39.9872 4.42262 41.1417 4.42262 42.2651 4.63913L42.8486 4.77239H42.6735L42.8736 4.85568L43.4988 5.11387L42.8653 5.0056C41.6579 4.82198 40.4297 4.82198 39.2223 5.0056C38.8108 5.06538 38.396 5.09876 37.9802 5.10554C37.3385 5.14449 36.7045 4.94914 36.1962 4.55584L35.7127 4.12275L36.2379 4.43091ZM38.397 2.60691C39.6466 2.12118 40.9905 1.92647 42.3267 2.0376C43.6629 2.14873 44.9561 2.56276 46.1081 3.24823H46.1581H46.1998C46.418 3.40481 46.6242 3.57742 46.8167 3.76461L47.2085 4.14773L46.7333 3.87288C45.4553 3.14426 44.0321 2.70631 42.5652 2.59025C41.1919 2.53093 39.8163 2.56153 38.447 2.68187L37.7635 2.79847L38.397 2.60691ZM48.3506 7.4959C48.3932 7.71035 48.3932 7.9311 48.3506 8.14555V8.40374L48.2589 8.16221C48.04 7.36179 47.5585 6.65792 46.8917 6.1633L46.6833 6.01338H46.9501C47.3099 6.08204 47.6388 6.26225 47.8903 6.52839C48.1417 6.79453 48.3027 7.13307 48.3506 7.4959ZM27.8016 18.3233C27.7193 18.8327 27.7025 19.3505 27.7516 19.8641C26.251 18.1984 25.8759 20.1806 25.8759 20.1806C26.3094 19.4394 27.7849 20.8469 27.7849 20.8469C27.8296 21.9111 28.0175 22.9645 28.3434 23.9786C22.0412 21.6548 24.3337 11.552 27.8016 18.3233ZM69.5665 17.9985L62.2472 7.42094H53.8192V14.7003C53.3377 14.8812 52.8744 15.1071 52.4354 15.3749C52.4354 14.8502 52.502 13.7508 52.502 13.7508C52.3937 13.5593 52.2603 13.3261 52.1102 13.0762C52.1102 12.8846 52.1102 12.6931 52.1102 12.4932C52.1102 12.4265 52.1102 12.3599 52.1102 12.2933C52.1102 12.2267 52.1102 11.9518 52.1102 11.7852V11.577C52.1102 11.5187 52.1102 11.4687 52.1102 11.4188C52.0243 10.4914 51.8198 9.57896 51.5017 8.70358L52.3353 9.32824C52.2243 8.34682 51.7299 7.44887 50.9598 6.8296L51.8935 6.93788C51.6523 6.6244 51.3434 6.36943 50.9897 6.19203C50.636 6.01464 50.2468 5.9194 49.8511 5.91344C49.9516 4.8411 49.7156 3.76409 49.1759 2.83179L48.8507 4.21436C48.8507 4.21436 47.8004 1.29929 43.0153 0.366466C39.239 -0.366466 36.9298 1.51584 35.2042 1.93228C33.4786 2.34872 32.3532 0.558028 32.1114 0C31.7157 0.956501 31.5418 1.99013 31.6029 3.02335C31.0378 2.25011 30.6558 1.35871 30.4859 0.416439C30.2335 0.858531 30.0401 1.33174 29.9107 1.824C29.9139 1.8377 29.9139 1.85195 29.9107 1.86565C29.8836 1.95883 29.8613 2.05335 29.844 2.14883V2.26543L29.7606 2.49863V2.65688C29.7606 2.73184 29.7606 2.8068 29.7606 2.89009C29.7643 2.94833 29.7643 3.00675 29.7606 3.06499C29.7606 3.13995 29.7606 3.23157 29.7606 3.31486C29.7606 3.39814 29.7606 3.43146 29.7606 3.48976V3.7896C29.7564 3.84226 29.7564 3.89518 29.7606 3.94784C29.7523 4.10598 29.7523 4.26445 29.7606 4.42258C29.3637 4.27036 28.9947 4.05367 28.6686 3.78127C28.7579 4.51957 28.9284 5.24578 29.1771 5.94675C28.7717 6.7532 28.4262 7.58833 28.1434 8.44539C27.614 10.0594 27.3329 11.7443 27.3097 13.4427L26.993 13.8258C26.993 14.1006 26.993 14.9252 27.0513 15.3583C26.6782 15.1312 26.288 14.9335 25.8842 14.7669V7.42094H17.9647L13.0046 14.3588L7.99452 7.42094H0V31.183H8.74478V20.4888L12.5045 25.5444H13.2297L17.1728 20.4305V31.183H25.9176V24.0285C26.535 24.5725 27.247 24.9987 28.0183 25.2862C28.0183 25.2862 28.6435 27.3184 28.3184 28.1846C28.6561 28.0822 28.963 27.8977 29.2118 27.6477C29.4605 27.3977 29.6434 27.09 29.7439 26.752C29.6106 30.2668 31.5779 30.5666 31.2778 32.6655C31.8729 31.9046 32.1533 30.9448 32.0614 29.9836C33.0176 31.8814 34.5694 33.4142 36.4797 34.3479C36.2832 33.7302 36.1355 33.098 36.0378 32.4573C37.1382 34.2813 39.164 34.4062 39.5391 36.3551C39.9893 36.2303 40.4082 36.0123 40.7687 35.7152C41.1291 35.4182 41.4231 35.0489 41.6315 34.6311C42 33.7275 42.6486 32.9656 43.4822 32.4573C43.3845 33.098 43.2368 33.7302 43.0403 34.3479C44.9506 33.4142 46.5024 31.8814 47.4586 29.9836C47.3579 30.9559 47.6388 31.9293 48.2422 32.6988C47.9421 30.5999 49.9095 30.3001 49.7761 26.7854C49.8766 27.1233 50.0595 27.431 50.3083 27.681C50.557 27.931 50.864 28.1155 51.2016 28.2179C50.8765 27.385 51.5017 25.3195 51.5017 25.3195C52.3655 24.9965 53.1541 24.5005 53.8192 23.862V31.2163H62.2805V20.1973L69.8249 31.183H77.9945V7.42094H69.5665V17.9985Z" fill="white"/>
<path d="M38.2801 22.8874C37.6548 21.9629 37.1213 23.6287 37.3131 23.8369C37.5048 24.0451 37.7382 23.3788 38.0216 23.4704C38.3051 23.5621 38.6052 24.1951 39.4221 24.2534C38.9474 23.8856 38.5578 23.4196 38.2801 22.8874Z" fill="white"/>
<path d="M41.1317 22.8875C40.8653 23.4199 40.4838 23.8865 40.0146 24.2534C40.8483 24.1951 41.0067 23.5954 41.4068 23.4705C41.807 23.3456 41.9153 24.0535 42.1237 23.837C42.3321 23.6204 41.7819 21.963 41.1484 22.8875" fill="white"/>
</g>
<defs>
<clipPath id="clip0_54777_31570">
<rect width="187" height="61" fill="white"/>
</clipPath>
</defs>
</svg>
